# xmcd
#
# Track frame offsets:
#	150
#	45737
#	55470
#	76770
#	83137
#	96885
#	110185
#	121725
#	137045
#	156462
#	185062
#	198400
#	213470
#	235025
#	250012
#	266670
#	280912
#	291420
#
# Disc length: 4165 seconds
#
# Revision: 2
# Processed by: cddbd v1.5.2PL0 Copyright (c) Steve Scherf et al.
# Submitted via: audiograbber 1.83.01
#
DISCID=0f104312
DTITLE=Various Artist - Kings of Blues CD2
DYEAR=1993
DGENRE=Blues
TTITLE0=John Lee Hooker - Never Get Out of These Blues Alive (1971)
TTITLE1=Chuck Berry - Worried Life Blues (1960)
TTITLE2=Alexis Korner, Robert Plant, Steve Miller - Operator (1968)
TTITLE3=Eric Clapton and Jimmy Page - The Choker (1966)
TTITLE4=Elmore James - Dust My Broom (1952)
TTITLE5=John Lee Hooker - One Bourbon One Scotch One Beer (1966)
TTITLE6=Sonny Boy Williamson - Don't Start Me Talking (1955)
TTITLE7=Eric Burdon - No More Elmore (1982)
TTITLE8=Long John Baldry - One Step Ahead (1992)
TTITLE9=Joe Cocker - St. James' Infirmary (1972)
TTITLE10=Muddy Waters - Mannish Boy (1955)
TTITLE11=Gary Moore and Phil Lynott - Parisienne Walkways (1978)
TTITLE12=Paul Butterfield - New Walking Blues (1973)
TTITLE13=Siegel-Schwall Band - Hush Hush (1971)
TTITLE14=B. B. King - My Lucille (1985)
TTITLE15=Climax Blues Band - Couldn't Get it Right (1976)
TTITLE16=Blues Inc. - She Fooled Me (1961)
TTITLE17=Mitch Rider - Ain't Nobody White (1980)
EXTD=Normal style of writing.\nTitles and Artists spelled correctly.\nTrack dat
EXTD=es provided.
EXTT0=
EXTT1=
EXTT2=
EXTT3=
EXTT4=
EXTT5=
EXTT6=
EXTT7=
EXTT8=
EXTT9=
EXTT10=
EXTT11=
EXTT12=
EXTT13=
EXTT14=
EXTT15=
EXTT16=
EXTT17=
PLAYORDER=
